<svg width="43" height="40" viewBox="0 0 43 40" fill="none" xmlns="http://www.w3.org/2000/svg">
<path d="M6.40308 16.2023V36.6145C6.40308 36.9815 6.54888 37.3335 6.8084 37.593C7.06793 37.8526 7.41993 37.9984 7.78695 37.9984H16.0902V26.2354C16.0902 25.6849 16.3089 25.1569 16.6982 24.7676C17.0875 24.3783 17.6155 24.1596 18.166 24.1596H25.0854C25.6359 24.1596 26.1639 24.3783 26.5532 24.7676C26.9425 25.1569 27.1612 25.6849 27.1612 26.2354V37.9984H35.4645C35.8315 37.9984 36.1835 37.8526 36.443 37.593C36.7026 37.3335 36.8484 36.9815 36.8484 36.6145V16.2023" stroke="white" stroke-width="2.76775" stroke-linecap="round" stroke-linejoin="round"/>
<path d="M41 20.008L22.5676 2.36355C22.1352 1.90687 21.1241 1.90168 20.6838 2.36355L2.25146 20.008M34.0806 13.3481V3.40145H29.929V9.36942" stroke="white" stroke-width="2.76775" stroke-linecap="round" stroke-linejoin="round"/>
</svg>
