<svg width="207" height="61" viewBox="0 0 207 61" fill="none" xmlns="http://www.w3.org/2000/svg">
<path d="M1.95404 16.472V44.528M1.95404 16.472L26.6434 2.2569L50.5846 16.472M1.95404 16.472L7.93933 19.8387M1.95404 44.528L26.2693 58.7431L50.5846 44.154M1.95404 44.528L7.93933 40.7872M50.5846 44.154V16.472M50.5846 44.154L44.9733 40.4131M50.5846 16.472L44.9733 19.8387M7.93933 19.8387V26.5722M7.93933 19.8387L26.6434 9.36443L44.9733 19.8387M7.93933 19.8387L15.0469 23.7873M44.9733 19.8387V26.5722M44.9733 19.8387L37.9927 23.7873M7.93933 40.7872V34.0538M7.93933 40.7872L26.6434 51.6356L44.9733 40.4131M7.93933 40.7872L15.0469 36.7668M44.9733 40.4131V34.0538M44.9733 40.4131L37.9927 36.535M15.0469 23.7873L26.6434 17.5942L37.9927 23.7873M15.0469 23.7873V28.4426M15.0469 23.7873L37.9927 36.535M37.9927 23.7873V28.4426M37.9927 23.7873L15.0469 36.7668M15.0469 32.1834C15.0469 33.6811 15.0469 36.7668 15.0469 36.7668M15.0469 36.7668L26.6434 43.4058L37.9927 36.535M37.9927 36.535C37.9927 36.535 37.9927 33.5906 37.9927 32.1834" stroke="white" stroke-width="3.74081"/>
<path d="M67.3374 47V43.1215L74.4479 22.2568H67.6606V17.9115H80.7684V21.5386L73.5501 42.6547H80.8402V47H67.3374ZM92.0377 47.4309C89.859 47.4309 88.1353 47.0479 86.8664 46.2818C85.5975 45.5156 84.6877 44.4144 84.1371 42.9779C83.5864 41.5414 83.3111 39.8296 83.3111 37.8425V27.0331C83.3111 25.022 83.5864 23.3102 84.1371 21.8977C84.6877 20.4851 85.5975 19.4078 86.8664 18.6656C88.1353 17.8995 89.859 17.5164 92.0377 17.5164C94.2403 17.5164 95.976 17.8995 97.2449 18.6656C98.5377 19.4078 99.4594 20.4851 100.01 21.8977C100.561 23.3102 100.836 25.022 100.836 27.0331V37.8425C100.836 39.8296 100.561 41.5414 100.01 42.9779C99.4594 44.4144 98.5377 45.5156 97.2449 46.2818C95.976 47.0479 94.2403 47.4309 92.0377 47.4309ZM92.0377 42.8701C92.708 42.8701 93.1988 42.7026 93.5101 42.3674C93.8213 42.0322 94.0248 41.6013 94.1206 41.0746C94.2163 40.5479 94.2642 40.0092 94.2642 39.4585V25.4529C94.2642 24.8784 94.2163 24.3397 94.1206 23.8369C94.0248 23.3102 93.8213 22.8793 93.5101 22.5441C93.1988 22.2089 92.708 22.0413 92.0377 22.0413C91.4152 22.0413 90.9484 22.2089 90.6371 22.5441C90.3259 22.8793 90.1224 23.3102 90.0266 23.8369C89.9309 24.3397 89.883 24.8784 89.883 25.4529V39.4585C89.883 40.0092 89.9189 40.5479 89.9907 41.0746C90.0865 41.6013 90.278 42.0322 90.5653 42.3674C90.8765 42.7026 91.3673 42.8701 92.0377 42.8701ZM104.748 47V17.9115H109.273L115.234 31.9171V17.9115H120.549V47H116.204L110.243 31.9171V47H104.748ZM124.878 47V17.9115H137.95V22.2927H131.307V29.511H136.37V33.964H131.307V42.6547H138.022V47H124.878ZM157.814 47V40.4641H148.872V36.0469L156.449 17.9115H163.416V36.011H166.11V40.4641H163.416V47H157.814ZM153.433 36.011H157.814V23.9087L153.433 36.011ZM176.683 47.5387C174.935 47.5387 173.474 47.1915 172.301 46.4972C171.128 45.779 170.242 44.7974 169.644 43.5525C169.045 42.3075 168.746 40.8591 168.746 39.2071V26.0275C168.746 24.3277 169.021 22.8434 169.572 21.5745C170.147 20.2816 171.02 19.2761 172.194 18.5579C173.367 17.8396 174.863 17.4805 176.683 17.4805C178.502 17.4805 179.986 17.8396 181.136 18.5579C182.309 19.2761 183.171 20.2816 183.721 21.5745C184.296 22.8434 184.583 24.3277 184.583 26.0275V39.2071C184.583 40.8351 184.284 42.2836 183.685 43.5525C183.087 44.7974 182.201 45.779 181.028 46.4972C179.855 47.1915 178.406 47.5387 176.683 47.5387ZM176.683 42.1878C177.257 42.1878 177.664 42.0083 177.904 41.6491C178.167 41.2661 178.323 40.8351 178.37 40.3563C178.442 39.8536 178.478 39.4226 178.478 39.0635V26.1712C178.478 25.7642 178.454 25.3093 178.406 24.8065C178.358 24.2798 178.203 23.8249 177.939 23.4419C177.7 23.0349 177.281 22.8314 176.683 22.8314C176.084 22.8314 175.653 23.0349 175.39 23.4419C175.15 23.8249 175.007 24.2798 174.959 24.8065C174.911 25.3093 174.887 25.7642 174.887 26.1712V39.0635C174.887 39.4226 174.923 39.8536 174.995 40.3563C175.067 40.8351 175.222 41.2661 175.462 41.6491C175.725 42.0083 176.132 42.1878 176.683 42.1878ZM196.391 47V40.4641H187.449V36.0469L195.026 17.9115H201.993V36.011H204.687V40.4641H201.993V47H196.391ZM192.01 36.011H196.391V23.9087L192.01 36.011Z" fill="white"/>
</svg>
