<svg width="17" height="17" viewBox="0 0 16 10" fill="none" xmlns="http://www.w3.org/2000/svg">
<path d="M8.55692 9.92386C3.44702 9.92386 0.532422 6.22178 0.41098 0.0615234H2.9706C3.05467 4.583 4.94169 6.4982 6.43636 6.89309V0.0615234H8.84651V3.96105C10.3225 3.79322 11.8732 2.01622 12.3963 0.0615234H14.8065C14.6094 1.07529 14.2164 2.03516 13.6522 2.8811C13.088 3.72704 12.3647 4.44085 11.5276 4.97788C12.462 5.46859 13.2874 6.16314 13.9492 7.0157C14.6111 7.86826 15.0943 8.85945 15.367 9.92386H12.714C12.4691 8.99934 11.9716 8.17175 11.2836 7.5448C10.5956 6.91785 9.74783 6.51943 8.84651 6.39948V9.92386H8.55692Z" fill="white"/>
</svg>
