<svg width="17" height="17" viewBox="0 0 15 15" fill="none" xmlns="http://www.w3.org/2000/svg">
<path d="M12.6657 2.2609C11.3227 0.87401 9.53192 0.103516 7.6417 0.103516C3.71201 0.103516 0.528471 3.39096 0.528471 7.4489C0.528471 8.73306 0.876672 10.0172 1.47359 11.0959L0.478729 14.897L4.25919 13.8697C5.30379 14.4347 6.44787 14.7429 7.6417 14.7429C11.5714 14.7429 14.7549 11.4555 14.7549 7.39754C14.7052 5.49698 14.0088 3.64779 12.6657 2.2609ZM11.074 10.0686C10.9247 10.4795 10.2283 10.8904 9.88012 10.9418C9.58167 10.9932 9.18373 10.9932 8.78578 10.8904C8.53707 10.7877 8.18887 10.685 7.79093 10.4795C6.00018 9.70902 4.8561 7.85983 4.75661 7.70573C4.65713 7.603 4.01047 6.72977 4.01047 5.80518C4.01047 4.88058 4.45816 4.46965 4.60738 4.26419C4.75661 4.05872 4.95558 4.05872 5.10481 4.05872C5.2043 4.05872 5.35353 4.05872 5.45301 4.05872C5.5525 4.05872 5.70173 4.00736 5.85096 4.36692C6.00018 4.72649 6.34838 5.65108 6.39813 5.70245C6.44787 5.80518 6.44787 5.90791 6.39813 6.01064C6.34838 6.11338 6.29864 6.21611 6.19915 6.31884C6.09967 6.42157 6.00018 6.57567 5.95044 6.62704C5.85095 6.72977 5.75147 6.83251 5.85096 6.9866C5.95044 7.19207 6.29864 7.7571 6.84581 8.27076C7.54221 8.88716 8.08938 9.09263 8.28835 9.19536C8.48733 9.29809 8.58681 9.24672 8.6863 9.14399C8.78578 9.04126 9.13398 8.63033 9.23347 8.42486C9.33296 8.2194 9.48218 8.27076 9.63141 8.32213C9.78064 8.3735 10.676 8.83579 10.8252 8.93853C11.0242 9.04126 11.1237 9.09262 11.1734 9.14399C11.2232 9.29809 11.2232 9.65765 11.074 10.0686Z" fill="white"/>
</svg>
