<svg width="17" height="17" viewBox="0 0 16 11" fill="none" xmlns="http://www.w3.org/2000/svg">
<path fill-rule="evenodd" clip-rule="evenodd" d="M2.19107 10.3161C1.9244 10.2344 1.68108 10.0889 1.48165 9.89206C1.28222 9.69521 1.13253 9.45272 1.0452 9.18505C0.546199 7.8016 0.398346 2.02478 1.35939 0.884376C1.67925 0.513394 2.13084 0.284989 2.61615 0.248738C5.19434 -0.03169 13.1599 0.00570075 14.0748 0.342215C14.3321 0.426657 14.5672 0.56891 14.7624 0.758313C14.9577 0.947716 15.108 1.17936 15.2022 1.43588C15.7474 2.86607 15.7658 8.06334 15.1282 9.43744C14.9591 9.79512 14.6759 10.0849 14.3243 10.26C13.3632 10.7461 3.4663 10.7368 2.19107 10.3161ZM6.28476 7.60531L10.9052 5.17493L6.28476 2.72585V7.60531Z" fill="white"/>
</svg>
